<?xml version="1.0" encoding="UTF-8" standalone="no"?>
<svg
   width="180"
   height="37"
   viewBox="0 0 180 37"
   fill="none"
   version="1.1"
   id="svg1"
   sodipodi:docname="logo_kiwoko.svg"
   inkscape:export-filename="logo_kiwoko.png"
   inkscape:export-xdpi="300"
   inkscape:export-ydpi="300"
   inkscape:version="1.4.2 (f4327f4, 2025-05-13)"
   xmlns:inkscape="http://www.inkscape.org/namespaces/inkscape"
   xmlns:sodipodi="http://sodipodi.sourceforge.net/DTD/sodipodi-0.dtd"
   xmlns="http://www.w3.org/2000/svg"
   xmlns:svg="http://www.w3.org/2000/svg">
  <defs
     id="defs1" />
  <sodipodi:namedview
     id="namedview1"
     pagecolor="#ffffff"
     bordercolor="#000000"
     borderopacity="0.25"
     inkscape:showpageshadow="2"
     inkscape:pageopacity="0.0"
     inkscape:pagecheckerboard="0"
     inkscape:deskcolor="#d1d1d1"
     inkscape:zoom="2.8284271"
     inkscape:cx="38.360543"
     inkscape:cy="63.462833"
     inkscape:window-width="2560"
     inkscape:window-height="1009"
     inkscape:window-x="-8"
     inkscape:window-y="-8"
     inkscape:window-maximized="1"
     inkscape:current-layer="svg1" />
  <g
     inkscape:groupmode="layer"
     id="g10"
     inkscape:label="L"
     style="display:inline"
     sodipodi:insensitive="true">
    <path
       d="m 174.32944,35.888459 c 0.51759,0.0026 1.07262,-0.0249 1.67129,-0.0873 0.59243,-0.0623 1.13497,-0.1933 1.62139,-0.3929 0.49266,-0.1933 0.89177,-0.5051 1.21605,-0.9354 0.31804,-0.424 0.48018,-1.004 0.48018,-1.7336 0,-0.7297 -0.16837,-1.3096 -0.50512,-1.7399 -0.33676,-0.4241 -0.75458,-0.7421 -1.2597,-0.9604 -0.4989,-0.212 -1.04144,-0.3367 -1.6214,-0.3866 -0.57996,-0.0437 -1.11628,-0.06615 -1.60269,-0.0686 l -12.40881,-0.0625 c -0.35575,-0.0018 -0.38744,6.302749 0,6.3047 z"
       style="display:inline;fill:#ce292c"
       id="path10"
       sodipodi:nodetypes="scccscccssss" />
    <path
       d="m 165.5047,6.0154372 c 0,-0.5176 -0.0249,-1.07262 -0.0873,-1.67129 -0.0623,-0.59243 -0.1933,-1.13497 -0.3929,-1.62139 -0.1933,-0.49266 -0.5051,-0.89177 -0.9354,-1.21605 -0.424,-0.31804 -1.004,-0.480183 -1.7336,-0.480183 -0.7297,0 -1.3096,0.168373 -1.7399,0.505123 -0.4241,0.33676 -0.7421,0.75458 -0.9604,1.2597 -0.212,0.4989 -0.3367,1.04144 -0.3866,1.6214 -0.0437,0.57996 -0.0686,1.11627 -0.0686,1.60269 V 30.174247 c 0,0.8232 0.0374,1.584 0.1185,2.2824 0.0748,0.7047 0.2245,1.2971 0.4552,1.7898 0.2245,0.4864 0.5488,0.8668 0.9604,1.1412 0.4116,0.2744 0.9666,0.4116 1.665,0.4116 0.7297,0 1.3034,-0.1434 1.715,-0.4365 0.4116,-0.2869 0.7171,-0.6922 0.9104,-1.2098 0.1996,-0.5176 0.3306,-1.1163 0.3929,-1.7836 0.0624,-0.6735 0.0873,-1.4031 0.0873,-2.1951 z"
       style="display:inline;fill:#ce292c"
       id="path11" />
  </g>
  <g
     inkscape:groupmode="layer"
     id="g14"
     inkscape:label=".. copia"
     style="display:inline"
     transform="translate(44.873138,27.859334)">
    <path
       d="m 100.02971,-0.70956849 c -0.105263,-0.2676775 -0.275058,-0.48452641 -0.509385,-0.66071781 -0.230896,-0.172801 -0.546745,-0.2608983 -0.94406,-0.2608983 -0.39737,0 -0.713164,0.091482 -0.947491,0.274449 -0.230951,0.1829722 -0.404123,0.40998681 -0.523001,0.68443411 -0.09711,0.4413983 -0.07626,0.7160925 0.0525,1.194544 0.122255,0.2642763 0.298858,0.4709594 0.523001,0.62004939 0.224144,0.1490901 0.526378,0.2236351 0.906703,0.2236351 0.397368,0 0.709786,-0.077914 0.933929,-0.237164 0.224144,-0.15588169 0.390509,-0.37609379 0.495774,-0.65732189 0.18718,-0.5391929 0.12328,-0.5843207 0.012,-1.1810096 z"
       style="display:inline;fill:#ce292c;stroke-width:0.543948"
       id="path13"
       sodipodi:nodetypes="ccscccssccc" />
    <path
       d="m 104.10951,-0.73958617 c -0.10527,-0.26767803 -0.27506,-0.48452703 -0.50939,-0.66071803 -0.23089,-0.172801 -0.54674,-0.260899 -0.94406,-0.260899 -0.39737,0 -0.71316,0.09148 -0.94749,0.274449 -0.23095,0.182973 -0.40412,0.40998703 -0.523,0.68443503 -0.0971,0.441398 -0.0763,0.716092 0.0525,1.1945435 0.12226,0.2642763 0.29886,0.4709594 0.523,0.62004937 0.22415,0.1490901 0.52638,0.2236351 0.9067,0.2236351 0.39737,0 0.70979,-0.077914 0.93393,-0.237164 0.22415,-0.15588167 0.39051,-0.37609377 0.49578,-0.65732187 0.18718,-0.5391931 0.12328,-0.5843211 0.012,-1.1810091 z"
       style="display:inline;fill:#ce292c;stroke-width:0.543948"
       id="path14"
       sodipodi:nodetypes="ccscccssccc" />
  </g>
  <g
     inkscape:groupmode="layer"
     id="g9"
     inkscape:label="a"
     style="display:inline"
     transform="rotate(180,133.68405,18.449939)"
     sodipodi:insensitive="true">
    <path
       d="m 120.52425,20.287308 c -0.3368,-0.6672 -0.6673,-1.6588 -1.004,-2.9746 l -2.5568,-9.7907404 c -0.3368,-1.30959 -0.6673,-2.38844 -0.9854,-3.24279 -0.318,-0.85435 -0.6547,-1.52785 -1.004,-2.01427 -0.3492,-0.49266 -0.7421,-0.82317 -1.1661,-1.01026 -0.4241,-0.18085 -0.9167,-0.27439 -1.4593,-0.27439 -0.9479,0 -1.6339,0.2058 -2.0579,0.61738 -0.4303,0.41159 -0.6423,1.15369 -0.6423,2.22007 0,0.33675 0.0686,0.91047 0.2058,1.71494 0.1371,0.81069 0.3741,1.74612 0.7109,2.81873 l 4.5711,15.4157304 v -0.0436 c 0.0561,0.2432 0.1372,0.4989 0.2245,0.7732 0.0935,0.2744 0.1683,0.5488 0.2307,0.8232 0.212,0.7671 0.4428,1.5403 0.686,2.3386 0.2432,0.792 0.4989,1.559 0.7733,2.3073 0.2744,0.7484 0.5675,1.4344 0.873,2.058 0.2994,0.6236 0.6361,1.1661 1.004,1.6276 0.3617,0.4241 0.7608,0.767 1.1849,1.029 0.4303,0.2556 0.898,0.3866 1.4156,0.3866 1.3158,0 0.18199,-0.009 0.18199,-0.009 0.7608,0 1.3845,-0.1435 1.8771,-0.4303 0.4864,-0.2931 0.9417,-0.711 1.3657,-1.2597 0.4303,-0.6112 0.7858,-1.4032 1.0789,-2.3822 0.2868,-0.9729 0.6174,-2.1328 0.979,-3.4736 0.156,-0.5176 0.3056,-1.0539 0.4553,-1.6027 0.1559,-0.5487 0.3243,-1.1287 0.5051,-1.7398 l 4.6584,-16.0581102 v 0.04989 c 0.3056,-0.97908 0.5239,-1.83343 0.6423,-2.56306 0.1248,-0.73586 0.1809,-1.26593 0.1809,-1.60269 0,-0.97907 -0.212,-1.70246 -0.6361,-2.17641 -0.4303,-0.46771 -1.1287,-0.70468 -2.1016,-0.70468 -0.8543,0 -1.5653,0.34922 -2.1265,1.04767 -0.5613,0.70468 -1.1038,1.98309 -1.6214,3.8477 -0.4864,1.82719 -0.8668,3.25526 -1.1412,4.2779902 -0.2744,1.0165 -0.5051,1.8646 -0.686,2.5381 -0.1871,0.6673 -0.3492,1.2847 -0.5051,1.8521 -0.1497,0.5613 -0.3492,1.2909 -0.5925,2.1702 -0.3679,1.4655 -0.7296,2.588 -1.0975,3.3675 -0.97,1.233823 -1.28037,0.977802 -2.42079,0.0714 z"
       style="fill:#ce292c"
       id="path9"
       sodipodi:nodetypes="ccccccscscccccccccccsscccccccccscscccccccc"
       sodipodi:insensitive="true" />
  </g>
  <g
     inkscape:groupmode="layer"
     id="layer3"
     inkscape:label="N"
     style="display:inline"
     sodipodi:insensitive="true">
    <path
       d="m 117.67275,19.291424 2.3759,8.23169 c 0.3306,1.09757 0.6611,2.15147 0.9791,3.15549 0.3181,1.01026 0.686,1.88332 1.0976,2.63165 0.4116,0.74834 0.9042,1.35325 1.4842,1.80849 0.5799,0.45523 1.2784,0.68597 2.1016,0.68597 0.8855,0 1.6151,-0.21203 2.1951,-0.64232 0.5799,-0.42406 1.0726,-1.00402 1.4842,-1.73365 0.4116,-0.73586 0.7608,-1.58398 1.0539,-2.54434 0.2869,-0.96037 0.5862,-1.97063 0.8918,-3.04324 l 2.3759,-8.41254 c 0.3617,-1.2847 0.7671,-2.3136 1.2098,-3.0931 1.38603,-3.922692 4.56579,-9.0846407 4.378,-13.0512497 -0.3617,-0.7991 -0.8233,-1.23575 -1.2474,-1.497746 -0.4303,-0.2556 -0.898,-0.3866 -1.4156,-0.3866 -1.3158,0 -2.2887,0.536296 -2.9248,1.602696 -0.6423,1.0664 -1.2659,2.6192 -1.877,4.6646 l -3.8353,12.3974997 c -0.3679,1.2223 -0.7109,2.0891 -1.0289,2.6067 -0.3243,0.5238 -0.711,0.7795 -1.1662,0.7795 -0.5176,0 -0.9666,-0.2744 -1.347,-0.8232 -0.3804,-0.5488 -0.7109,-1.3096 -0.9853,-2.2886 l -3.5172,-12.8090997 c -0.3056,-1.0664 -0.6049,-1.9893 -0.8918,-2.7688 -0.2868,-0.7795 -0.5986,-1.3969 -0.9354,-1.8522 v 0.0437 c -0.7608,-1.066396 -1.7835,-1.596496 -3.0619,-1.596496 -0.7608,0 -1.3845,0.1435 -1.8771,0.4303 -0.4864,0.293096 -0.9417,0.710996 -1.3657,1.259696 -0.4303,0.6112 -0.7858,1.4032 -1.0789,2.3822 -0.2868,0.9729 -0.6174,2.1328 -0.979,3.4736 -0.156,0.5176 -0.3056,1.0539 -0.4553,1.6026997 -0.1559,0.5487 -0.3243,1.1287 -0.5051,1.7398 l -4.6584,16.05811 v -0.0499 c -0.3056,0.97908 -0.5239,1.83343 -0.6423,2.56306 -0.1248,0.73586 -0.1809,1.26593 -0.1809,1.60269 0,0.97907 0.212,1.70246 0.6361,2.17641 0.4303,0.46771 1.1287,0.70468 2.1016,0.70468 0.8543,0 1.5653,-0.34922 2.1265,-1.04767 0.5613,-0.70468 1.1038,-1.98309 1.6214,-3.8477 0.4864,-1.82719 0.8668,-3.25526 1.1412,-4.27799 0.2744,-1.0165 0.5051,-1.8646 0.686,-2.5381 0.1871,-0.6673 0.3492,-1.2847 0.5051,-1.8521 0.1497,-0.5613 0.3492,-1.2909 0.5925,-2.1702 0.3679,-1.4655 0.7296,-2.588 1.0975,-3.3675 0.3679,-0.7733 0.792,-1.1662 1.2784,-1.1662 0.4864,0 0.9479,0.3929 1.372,1.1662 0.424,0.7795 0.8231,1.8084 1.1911,3.0931 z"
       style="fill:#ce292c"
       id="path1-7"
       sodipodi:nodetypes="cccscsccccccccsccccsscccccscccccccccscscccccccscsc" />
  </g>
  <g
     inkscape:groupmode="layer"
     id="layer2"
     inkscape:label="i"
     style="display:inline"
     sodipodi:insensitive="true">
    <path
       d="m 102.69352,6.0886605 c 0,-0.5176 -0.0249,-1.07262 -0.0873,-1.67129 -0.0623,-0.59243 -0.1933,-1.13497 -0.3929,-1.62139 -0.1933,-0.49266 -0.5051,-0.89177 -0.9354,-1.21605 -0.424,-0.31804 -1.004,-0.480183 -1.7336,-0.480183 -0.7297,0 -1.3096,0.168373 -1.7399,0.505123 -0.4241,0.33676 -0.7421,0.75458 -0.9604,1.2597 -0.212,0.4989 -0.3367,1.04144 -0.3866,1.6214 -0.0437,0.57996 -0.0686,1.11627 -0.0686,1.60269 V 30.24747 c 0,0.8232 0.0374,1.584 0.1185,2.2824 0.0748,0.7047 0.2245,1.2971 0.4552,1.7898 0.2245,0.4864 0.5488,0.8668 0.9604,1.1412 0.4116,0.2744 0.9666,0.4116 1.665,0.4116 0.7297,0 1.3034,-0.1434 1.715,-0.4365 0.4116,-0.2869 0.7171,-0.6922 0.9104,-1.2098 0.1996,-0.5176 0.3306,-1.1163 0.3929,-1.7836 0.0624,-0.6735 0.0873,-1.4031 0.0873,-2.1951 z"
       style="display:inline;fill:#ce292c"
       id="path1-1" />
  </g>
  <g
     inkscape:groupmode="layer"
     id="g6"
     inkscape:label="F"
     style="display:inline"
     sodipodi:insensitive="true">
    <path
       d="m 79.712549,5.7351071 c 0,-0.5176 -0.0249,-1.07262 -0.0873,-1.67129 -0.0623,-0.59243 -0.1933,-1.13497 -0.3929,-1.62139 -0.1933,-0.49266 -0.5051,-0.89177 -0.9354,-1.21605 -0.424,-0.31804001 -1.004,-0.48018301 -1.7336,-0.48018301 -0.7297,0 -1.3096,0.168373 -1.7399,0.50512301 -0.4241,0.33676 -0.7421,0.75458 -0.9604,1.2597 -0.212,0.4989 -0.3367,1.04144 -0.3866,1.6214 -0.0437,0.57996 -0.0686,1.11627 -0.0686,1.60269 V 29.893917 c 0,0.8232 0.0374,1.584 0.1185,2.2824 0.0748,0.7047 0.2245,1.2971 0.4552,1.7898 0.2245,0.4864 0.5488,0.8668 0.9604,1.1412 0.4116,0.2744 0.9666,0.4116 1.665,0.4116 0.7297,0 1.3034,-0.1434 1.715,-0.4365 0.4116,-0.2869 0.7171,-0.6922 0.9104,-1.2098 0.1996,-0.5176 0.3306,-1.1163 0.3929,-1.7836 0.0624,-0.6735 0.0873,-1.4031 0.0873,-2.1951 z"
       style="display:inline;fill:#ce292c"
       id="path6" />
    <path
       d="m 84.3993,21.347406 c 0.517598,-0.0015 1.07262,-0.0249 1.67129,-0.0873 0.592433,-0.0623 1.134973,-0.1933 1.621393,-0.3929 0.49266,-0.1933 0.89177,-0.5051 1.21605,-0.9354 0.31804,-0.424 0.48018,-1.004 0.48018,-1.7336 0,-0.7297 -0.16837,-1.3096 -0.50512,-1.7399 -0.33676,-0.4241 -0.75458,-0.7421 -1.2597,-0.9604 -0.4989,-0.212 -1.041443,-0.3367 -1.621403,-0.3866 -0.57996,-0.0437 -1.116272,-0.07001 -1.60269,-0.0686 l -10.787962,0.03125 c 0,0 0.01244,6.3047 0,6.3047 z"
       style="display:inline;fill:#ce292c"
       id="path7"
       sodipodi:nodetypes="scccscccsccs" />
    <path
       d="m 89.322999,7.0900738 c 0.517598,0.00125 1.07262,-0.0249 1.67129,-0.0873 0.59243,-0.0623 1.13497,-0.1933 1.62139,-0.3929 0.49266,-0.1933 0.89177,-0.5051 1.21605,-0.9354 0.31804,-0.424 0.48019,-1.004 0.48019,-1.7336 0,-0.7297 -0.16838,-1.3096 -0.50513,-1.7399 -0.33676,-0.4241 -0.75458,-0.7421 -1.2597,-0.9604 -0.4989,-0.212 -1.04144,-0.3367 -1.6214,-0.3866 -0.57996,-0.0437 -1.116272,-0.0674248 -1.60269,-0.0686 l -12.934721,-0.03125 c -0.06256,0 0,6.3047 0,6.3047 z"
       style="display:inline;fill:#ce292c"
       id="path8"
       sodipodi:nodetypes="scccscccsccs" />
  </g>
  <g
     inkscape:groupmode="layer"
     id="g5"
     inkscape:label="p"
     style="display:inline"
     sodipodi:insensitive="true">
    <path
       d="m 69.350748,13.140294 c 0,-2.092595 -0.359257,-3.8828752 -1.088592,-5.3708418 C 67.537871,6.2815055 66.561817,5.0565824 65.328945,4.0947086 64.101123,3.136757 62.674916,2.4300692 61.059702,1.9785799 59.444488,1.5270844 57.748477,1.3033008 55.967269,1.3033008 c -2.087442,0 -3.931917,0.3023043 -5.537968,0.9069133 -0.121681,8.2842479 -0.116634,10.8182729 0.179989,21.1691249 1.597035,0.604629 3.383003,0.906944 5.357979,0.906944 1.911782,0 3.684261,-0.263031 5.308853,-0.793058 1.62387,-0.526123 3.036371,-1.275992 4.237502,-2.245704 1.196801,-0.969712 2.136785,-2.139687 2.816343,-3.513765 0.683887,-1.374142 1.020781,-2.905296 1.020781,-4.593462 z M 52.953117,5.4648902 c 0.976198,-0.3572693 1.546422,2.5910572 2.576652,2.5910572 1.20986,0 2.303272,-0.163148 3.503387,0.1394718 0.941239,0.2373418 2.000432,0.5580263 3.16021,1.5485076 0.440775,1.0207692 1.036523,1.7648522 1.192773,3.1463672 0.114272,1.010362 0.0074,1.857611 -0.406703,2.76846 -0.418412,0.914751 -0.757795,1.524275 -1.736901,2.390944 -0.912276,0.589386 -1.383019,0.912436 -2.436262,1.316803 -1.338101,0.212963 -2.311332,0.04213 -3.589004,0.04213 -1.295634,0 -1.697348,1.018321 -2.709544,0.558994 -0.009,-4.272649 0.238249,-8.545 0.445392,-14.5027348 z"
       style="fill:#ce292c;stroke-width:0.673918"
       id="path4"
       sodipodi:nodetypes="sccssccscccscsscscccscc" />
    <path
       d="m 56.024472,6.2654372 c 0,-0.5176 -0.0249,-1.07262 -0.0873,-1.67129 -0.0623,-0.59243 -0.1933,-1.13497 -0.3929,-1.62139 -0.1933,-0.49266 -0.5051,-0.89177 -0.9354,-1.21605 -0.424,-0.31804 -1.004,-0.480183 -1.7336,-0.480183 -0.7297,0 -1.3096,0.168373 -1.7399,0.505123 -0.4241,0.33676 -0.7421,0.75458 -0.9604,1.2597 -0.212,0.4989 -0.3367,1.04144 -0.3866,1.6214 -0.0437,0.57996 -0.0686,1.11627 -0.0686,1.60269 V 30.424246 c 0,0.8232 0.0374,1.584 0.1185,2.2824 0.0748,0.7047 0.2245,1.2971 0.4552,1.7898 0.2245,0.4864 0.5488,0.8668 0.9604,1.1412 0.4116,0.2744 0.9666,0.4116 1.665,0.4116 0.7297,0 1.3034,-0.1434 1.715,-0.4365 0.4116,-0.2869 0.7171,-0.6922 0.9104,-1.2098 0.1996,-0.5176 0.3306,-1.1163 0.3929,-1.7836 0.0624,-0.6735 0.0873,-1.4031 0.0873,-2.1951 z"
       style="display:inline;fill:#ce292c"
       id="path5" />
  </g>
  <g
     inkscape:groupmode="layer"
     id="g3"
     inkscape:label="p"
     style="display:inline"
     sodipodi:insensitive="true">
    <path
       d="m 48.667875,12.786741 c 0,-2.092595 -0.359257,-3.8828756 -1.088592,-5.3708422 C 46.854998,5.9279521 45.878944,4.703029 44.646072,3.7411552 43.41825,2.7832036 41.992043,2.0765158 40.376829,1.6250265 38.761615,1.173531 37.065604,0.94974746 35.284396,0.94974746 c -2.087442,0 -3.931917,0.30230424 -5.537968,0.90691324 -0.121681,8.2842483 -0.116634,10.8182733 0.179989,21.1691253 1.597035,0.604629 3.383003,0.906944 5.357979,0.906944 1.911782,0 3.684261,-0.263031 5.308853,-0.793058 1.62387,-0.526123 3.036371,-1.275992 4.237502,-2.245704 1.196801,-0.969712 2.136785,-2.139687 2.816343,-3.513765 0.683887,-1.374142 1.020781,-2.905296 1.020781,-4.593462 z M 32.270244,5.1113368 c 0.976198,-0.3572693 1.546422,2.5910572 2.576652,2.5910572 1.20986,0 2.303272,-0.163148 3.503387,0.1394718 0.941239,0.2373418 2.000432,0.5580263 3.16021,1.5485076 0.440775,1.0207696 1.036523,1.7648526 1.192773,3.1463676 0.114272,1.010362 0.0074,1.857611 -0.406703,2.76846 -0.418412,0.914751 -0.757795,1.524275 -1.736901,2.390944 -0.912276,0.589386 -1.383019,0.912436 -2.436262,1.316803 -1.338101,0.212963 -2.311332,0.04213 -3.589004,0.04213 -1.295634,0 -1.697348,1.018321 -2.709544,0.558994 -0.009,-4.272649 0.238249,-8.545 0.445392,-14.5027352 z"
       style="fill:#ce292c;stroke-width:0.673918"
       id="path1-3"
       sodipodi:nodetypes="sccssccscccscsscscccscc" />
    <path
       d="m 35.341599,5.9118838 c 0,-0.5176 -0.0249,-1.07262 -0.0873,-1.67129 -0.0623,-0.59243 -0.1933,-1.13497 -0.3929,-1.62139 -0.1933,-0.49266 -0.5051,-0.89177 -0.9354,-1.21605 -0.424,-0.31804 -1.004,-0.48018301 -1.7336,-0.48018301 -0.7297,0 -1.3096,0.16837301 -1.7399,0.50512301 -0.4241,0.33676 -0.7421,0.75458 -0.9604,1.2597 -0.212,0.4989 -0.3367,1.04144 -0.3866,1.6214 -0.0437,0.57996 -0.0686,1.11627 -0.0686,1.60269 V 30.070693 c 0,0.8232 0.0374,1.584 0.1185,2.2824 0.0748,0.7047 0.2245,1.2971 0.4552,1.7898 0.2245,0.4864 0.5488,0.8668 0.9604,1.1412 0.4116,0.2744 0.9666,0.4116 1.665,0.4116 0.7297,0 1.3034,-0.1434 1.715,-0.4365 0.4116,-0.2869 0.7171,-0.6922 0.9104,-1.2098 0.1996,-0.5176 0.3306,-1.1163 0.3929,-1.7836 0.0624,-0.6735 0.0873,-1.4031 0.0873,-2.1951 z"
       style="display:inline;fill:#ce292c"
       id="path3" />
  </g>
  <g
     inkscape:groupmode="layer"
     id="g12"
     inkscape:label=".."
     style="display:inline"
     transform="translate(-86.001862,27.046834)"
     sodipodi:insensitive="true">
    <path
       d="m 100.02971,-0.70956849 c -0.105263,-0.2676775 -0.275058,-0.48452641 -0.509385,-0.66071781 -0.230896,-0.172801 -0.546745,-0.2608983 -0.94406,-0.2608983 -0.39737,0 -0.713164,0.091482 -0.947491,0.274449 -0.230951,0.1829722 -0.404123,0.40998681 -0.523001,0.68443411 -0.09711,0.4413983 -0.07626,0.7160925 0.0525,1.194544 0.122255,0.2642763 0.298858,0.4709594 0.523001,0.62004939 0.224144,0.1490901 0.526378,0.2236351 0.906703,0.2236351 0.397368,0 0.709786,-0.077914 0.933929,-0.237164 0.224144,-0.15588169 0.390509,-0.37609379 0.495774,-0.65732189 0.18718,-0.5391929 0.12328,-0.5843207 0.012,-1.1810096 z"
       style="display:inline;fill:#ce292c;stroke-width:0.543948"
       id="path12"
       sodipodi:nodetypes="ccscccssccc" />
    <path
       d="m 104.10951,-0.73958617 c -0.10527,-0.26767803 -0.27506,-0.48452703 -0.50939,-0.66071803 -0.23089,-0.172801 -0.54674,-0.260899 -0.94406,-0.260899 -0.39737,0 -0.71316,0.09148 -0.94749,0.274449 -0.23095,0.182973 -0.40412,0.40998703 -0.523,0.68443503 -0.0971,0.441398 -0.0763,0.716092 0.0525,1.1945435 0.12226,0.2642763 0.29886,0.4709594 0.523,0.62004937 0.22415,0.1490901 0.52638,0.2236351 0.9067,0.2236351 0.39737,0 0.70979,-0.077914 0.93393,-0.237164 0.22415,-0.15588167 0.39051,-0.37609377 0.49578,-0.65732187 0.18718,-0.5391931 0.12328,-0.5843211 0.012,-1.1810091 z"
       style="display:inline;fill:#ce292c;stroke-width:0.543948"
       id="path12-8"
       sodipodi:nodetypes="ccscccssccc" />
  </g>
  <g
     inkscape:groupmode="layer"
     id="g1"
     inkscape:label="a"
     style="display:inline"
     transform="rotate(180,71.281873,18.184774)"
     sodipodi:insensitive="true">
    <path
       d="m 126.32235,20.787308 c -0.3368,-0.6672 -0.6673,-1.6588 -1.004,-2.9746 l -2.5568,-9.7907404 c -0.3368,-1.30959 -0.6673,-2.38844 -0.9854,-3.24279 -0.318,-0.85435 -0.6547,-1.52785 -1.004,-2.01427 -0.3492,-0.49266 -0.7421,-0.82317 -1.1661,-1.01026 -0.4241,-0.18085 -0.9167,-0.27439 -1.4593,-0.27439 -0.9479,0 -1.6339,0.2058 -2.0579,0.61738 -0.4303,0.41159 -0.6423,1.15369 -0.6423,2.22007 0,0.33675 0.0686,0.91047 0.2058,1.71494 0.1371,0.81069 0.3741,1.74612 0.7109,2.81873 l 4.5711,15.4157304 v -0.0436 c 0.0561,0.2432 0.1372,0.4989 0.2245,0.7732 0.0935,0.2744 0.1683,0.5488 0.2307,0.8232 0.212,0.7671 0.4428,1.5403 0.686,2.3386 0.2432,0.792 0.4989,1.559 0.7733,2.3073 0.2744,0.7484 0.5675,1.4344 0.873,2.058 0.2994,0.6236 0.6361,1.1661 1.004,1.6276 0.3617,0.4241 0.7608,0.767 1.1849,1.029 0.4303,0.2556 0.898,0.3866 1.4156,0.3866 1.3158,0 0.18199,-0.009 0.18199,-0.009 0.7608,0 1.3845,-0.1435 1.8771,-0.4303 0.4864,-0.2931 0.9417,-0.711 1.3657,-1.2597 0.4303,-0.6112 0.7858,-1.4032 1.0789,-2.3822 0.2868,-0.9729 0.6174,-2.1328 0.979,-3.4736 0.156,-0.5176 0.3056,-1.0539 0.4553,-1.6027 0.1559,-0.5487 0.3243,-1.1287 0.5051,-1.7398 l 4.6584,-16.0581102 v 0.04989 c 0.3056,-0.97908 0.5239,-1.83343 0.6423,-2.56306 0.1248,-0.73586 0.1809,-1.26593 0.1809,-1.60269 0,-0.97907 -0.212,-1.70246 -0.6361,-2.17641 -0.4303,-0.46771 -1.1287,-0.70468 -2.1016,-0.70468 -0.8543,0 -1.5653,0.34922 -2.1265,1.04767 -0.5613,0.70468 -1.1038,1.98309 -1.6214,3.8477 -0.4864,1.82719 -0.8668,3.25526 -1.1412,4.2779902 -0.2744,1.0165 -0.5051,1.8646 -0.686,2.5381 -0.1871,0.6673 -0.3492,1.2847 -0.5051,1.8521 -0.1497,0.5613 -0.3492,1.2909 -0.5925,2.1702 -0.3679,1.4655 -0.7296,2.588 -1.0975,3.3675 -0.97,1.233823 -1.28037,0.977802 -2.42079,0.0714 z"
       style="fill:#ce292c"
       id="path1"
       sodipodi:nodetypes="ccccccscscccccccccccsscccccccccscscccccccc" />
  </g>
</svg>
