<?xml version="1.0" encoding="UTF-8" standalone="no"?>
<svg
   width="180"
   height="37"
   viewBox="0 0 180 37"
   fill="none"
   version="1.1"
   id="svg1"
   sodipodi:docname="favicon-32x32.svg"
   inkscape:export-filename="favicon-32x32.png"
   inkscape:export-xdpi="90.122993"
   inkscape:export-ydpi="90.122993"
   inkscape:version="1.4.2 (f4327f4, 2025-05-13)"
   xmlns:inkscape="http://www.inkscape.org/namespaces/inkscape"
   xmlns:sodipodi="http://sodipodi.sourceforge.net/DTD/sodipodi-0.dtd"
   xmlns="http://www.w3.org/2000/svg"
   xmlns:svg="http://www.w3.org/2000/svg">
  <defs
     id="defs1" />
  <sodipodi:namedview
     id="namedview1"
     pagecolor="#ffffff"
     bordercolor="#000000"
     borderopacity="0.25"
     inkscape:showpageshadow="2"
     inkscape:pageopacity="0.0"
     inkscape:pagecheckerboard="0"
     inkscape:deskcolor="#d1d1d1"
     inkscape:zoom="4"
     inkscape:cx="112.375"
     inkscape:cy="37.625"
     inkscape:window-width="2560"
     inkscape:window-height="1009"
     inkscape:window-x="-8"
     inkscape:window-y="-8"
     inkscape:window-maximized="1"
     inkscape:current-layer="g1" />
  <g
     inkscape:groupmode="layer"
     id="g6"
     inkscape:label="F"
     style="display:inline">
    <path
       d="m 30.484234,3.5629406 c 0,-0.2403626 -0.01314,-0.4981022 -0.04606,-0.776112 C 30.405304,2.5117165 30.336188,2.2597723 30.230878,2.0338891 30.128892,1.8051081 29.964385,1.6197698 29.737357,1.469181 29.513653,1.3214899 29.207643,1.2461941 28.822703,1.2461941 c -0.384992,0 -0.69095,0.078189 -0.917978,0.2345685 -0.223757,0.1563843 -0.391535,0.3504111 -0.506711,0.5849783 -0.111852,0.2316786 -0.177644,0.4836228 -0.203971,0.7529441 -0.02306,0.2693212 -0.03619,0.5183723 -0.03619,0.7442556 V 14.781785 c 0,0.382277 0.01973,0.735576 0.06252,1.059898 0.03946,0.327248 0.118447,0.602347 0.240165,0.831146 0.118447,0.225874 0.289549,0.402524 0.506711,0.529949 0.217162,0.127426 0.509982,0.191139 0.878461,0.191139 0.384992,0 0.687679,-0.06659 0.904841,-0.202702 0.217161,-0.13323 0.378344,-0.321443 0.48033,-0.561805 0.10531,-0.240363 0.174426,-0.518387 0.207296,-0.828267 0.03292,-0.312759 0.04606,-0.65157 0.04606,-1.019358 z"
       style="display:inline;fill:#ce292c;stroke-width:0.494983"
       id="path6" />
    <path
       d="m 32.956982,10.812965 c 0.273087,-6.97e-4 0.565918,-0.01156 0.881779,-0.04054 0.31257,-0.02893 0.598816,-0.08976 0.855454,-0.182454 0.259929,-0.08976 0.470501,-0.234558 0.641592,-0.43438 0.167799,-0.1968971 0.253345,-0.466237 0.253345,-0.8050479 0,-0.3388573 -0.08883,-0.6081507 -0.266503,-0.807973 -0.177676,-0.1969432 -0.39812,-0.3446157 -0.664623,-0.4459896 -0.263221,-0.098448 -0.549469,-0.1563564 -0.855458,-0.1795289 -0.30599,-0.020293 -0.58895,-0.032511 -0.845586,-0.031856 l -5.691771,0.014512 c 0,0 0.0066,2.9277704 0,2.9277704 z"
       style="display:inline;fill:#ce292c;stroke-width:0.494983"
       id="path7"
       sodipodi:nodetypes="scccscccsccs" />
    <path
       d="m 35.554745,4.1921587 c 0.273087,5.804e-4 0.565919,-0.011563 0.881779,-0.04054 0.312569,-0.028931 0.598815,-0.089764 0.855452,-0.1824545 0.259929,-0.089764 0.470501,-0.2345579 0.641593,-0.4343802 0.167799,-0.1968967 0.25335,-0.4662365 0.25335,-0.8050474 0,-0.3388574 -0.08884,-0.6081508 -0.266509,-0.807973 C 37.742734,1.7248201 37.522291,1.5771476 37.255788,1.4757737 36.992566,1.3773253 36.70632,1.3194172 36.400331,1.2962447 36.094341,1.2759513 35.811381,1.264934 35.554745,1.2643883 l -6.82441,-0.014512 c -0.03301,0 0,2.9277704 0,2.9277704 z"
       style="display:inline;fill:#ce292c;stroke-width:0.494983"
       id="path8"
       sodipodi:nodetypes="scccscccsccs" />
  </g>
  <g
     inkscape:groupmode="layer"
     id="g12"
     inkscape:label=".."
     style="display:inline"
     transform="translate(-86.001862,27.046834)"
     sodipodi:insensitive="true" />
  <g
     inkscape:groupmode="layer"
     id="g1"
     inkscape:label="a"
     style="display:inline"
     transform="rotate(180,71.281873,18.184774)">
    <path
       d="m 126.37964,8.5947825 c 0.10526,0.2676775 0.27506,0.4845264 0.50938,0.6607178 0.2309,0.172801 0.54675,0.2608983 0.94406,0.2608983 0.39737,0 0.71317,-0.091482 0.9475,-0.274449 0.23095,-0.1829722 0.40412,-0.4099868 0.523,-0.6844341 0.0971,-0.4413983 0.0763,-0.7160925 -0.0525,-1.194544 -0.12226,-0.2642763 -0.29886,-0.4709594 -0.523,-0.6200494 -0.22415,-0.1490901 -0.52638,-0.2236351 -0.90671,-0.2236351 -0.39737,0 -0.70978,0.077914 -0.93393,0.237164 -0.22414,0.1558817 -0.39051,0.3760938 -0.49577,0.6573219 -0.18718,0.5391929 -0.12328,0.5843207 -0.012,1.1810096 z"
       style="display:inline;fill:#ce292c;stroke-width:0.543948"
       id="path12"
       sodipodi:nodetypes="ccscccssccc" />
    <path
       d="m 121.04984,8.5623002 c 0.10527,0.267678 0.27506,0.484527 0.50939,0.660718 0.23089,0.172801 0.54674,0.260899 0.94406,0.260899 0.39737,0 0.71316,-0.09148 0.94749,-0.274449 0.23095,-0.182973 0.40412,-0.409987 0.523,-0.684435 0.0971,-0.441398 0.0763,-0.716092 -0.0525,-1.1945435 -0.12226,-0.2642763 -0.29886,-0.4709594 -0.523,-0.6200494 -0.22415,-0.1490901 -0.52638,-0.2236351 -0.9067,-0.2236351 -0.39737,0 -0.70979,0.077914 -0.93393,0.237164 -0.22415,0.1558817 -0.39051,0.3760938 -0.49578,0.6573219 -0.18718,0.5391931 -0.12328,0.5843211 -0.012,1.1810091 z"
       style="display:inline;fill:#ce292c;stroke-width:0.543948"
       id="path12-8"
       sodipodi:nodetypes="ccscccssccc" />
    <path
       d="m 122.84135,21.185056 c -0.3987,-0.6672 -0.78994,-1.6588 -1.18852,-2.9746 l -3.02671,-9.7907408 c -0.40432,-1.3078676 -0.72366,-2.2337604 -1.12232,-3.3311784 -0.39854,-1.1637092 -0.50987,-1.8814034 -0.92336,-2.3678234 -0.41338,-0.49266 -0.7459,-0.7789758 -1.24783,-0.9660658 -0.50205,-0.18085 -0.42227,-0.27439 -1.06459,-0.27439 -1.12212,0 -1.9342,0.2058 -2.43612,0.61738 -0.50939,0.41159 -0.76035,1.15369 -0.76035,2.22007 0,0.33675 0.0812,0.91047 0.24362,1.71494 0.1623,0.81069 0.44286,1.74612 0.84156,2.81873 l 5.41122,15.4157304 v -0.0436 c 0.0664,0.2432 0.16241,0.4989 0.26576,0.7732 0.11068,0.2744 0.19923,0.5488 0.2731,0.8232 0.25096,0.7671 0.52418,1.5403 0.81208,2.3386 0.28789,0.792 0.59059,1.559 0.91542,2.3073 0.32483,0.7484 0.6718,1.4344 1.03345,2.058 0.35442,0.6236 0.75301,1.1661 1.18852,1.6276 0.42818,0.4241 0.90063,0.767 1.40267,1.029 0.50939,0.2556 1.06305,0.3866 1.67577,0.3866 1.55763,0 0.21544,-0.009 0.21544,-0.009 0.90063,0 1.63896,-0.1435 2.22209,-0.4303 0.5758,-0.2931 1.11478,-0.711 1.6167,-1.2597 0.50939,-0.6112 0.93022,-1.4032 1.27719,-2.3822 0.33951,-0.9729 0.73087,-2.1328 1.15893,-3.4736 0.18467,-0.5176 0.36177,-1.0539 0.53898,-1.6027 0.18455,-0.5487 0.3839,-1.1287 0.59793,-1.7398 l 5.51457,-16.0581102 v 0.04989 c 0.36176,-0.97908 0.62018,-1.83343 0.76034,-2.56306 0.14774,-0.73586 0.21415,-1.26593 0.21415,-1.60269 0,-0.97907 -0.25096,-1.70246 -0.75301,-2.17641 -0.50938,-0.46771 -1.33614,-0.70468 -2.48785,-0.70468 -1.01131,0 -1.27846,0.34922 -1.94281,1.04767 -0.66446,0.70468 -1.04149,1.9388958 -1.65422,3.8035058 -0.5758,1.82719 -1.02611,3.25526 -1.35094,4.2779904 -0.32483,1.0165 -0.59793,1.8646 -0.81208,2.5381 -0.22149,0.6673 -0.41338,1.2847 -0.59793,1.8521 -0.17721,0.5613 -0.41338,1.2909 -0.7014,2.1702 -0.43551,1.4655 -0.86369,2.588 -1.2992,3.3675 -1.28086,2.736425 -4.29992,2.12685 -4.81025,0.513342 z"
       style="fill:#ce292c;stroke-width:1.08802"
       id="path1"
       sodipodi:nodetypes="ccscccscscccccccccccsscccccccccscscccccccc" />
  </g>
</svg>
