<?xml version="1.0" encoding="UTF-8" standalone="no"?>
<!DOCTYPE svg PUBLIC "-//W3C//DTD SVG 1.0//EN" "http://www.w3.org/TR/2001/PR-SVG-20010719/DTD/svg10.dtd">
<svg width="43cm" height="39cm" viewBox="68 0 846 762" xmlns="http://www.w3.org/2000/svg" xmlns:xlink="http://www.w3.org/1999/xlink">
  <g>
    <rect style="fill: #ffffff" x="360.798" y="235.813" width="495.1" height="28"/>
    <rect style="fill: none; fill-opacity:0; stroke-width: 2; stroke: #000000" x="360.798" y="235.813" width="495.1" height="28"/>
    <text font-size="16" style="fill: #000000;text-anchor:middle;font-family:sans-serif;font-style:normal;font-weight:700" x="608.348" y="254.813">UsuarioPDO</text>
    <rect style="fill: #ffffff" x="360.798" y="263.813" width="495.1" height="8"/>
    <rect style="fill: none; fill-opacity:0; stroke-width: 2; stroke: #000000" x="360.798" y="263.813" width="495.1" height="8"/>
    <rect style="fill: #ffffff" x="360.798" y="271.813" width="495.1" height="116"/>
    <rect style="fill: none; fill-opacity:0; stroke-width: 2; stroke: #000000" x="360.798" y="271.813" width="495.1" height="116"/>
    <text font-size="12.8" style="fill: #000000;text-anchor:start;font-family:monospace;font-style:normal;font-weight:normal" x="363.798" y="285.813">+static validarUsuario(codUsuario,password)</text>
    <text font-size="12.8" style="fill: #000000;text-anchor:start;font-family:monospace;font-style:normal;font-weight:normal" x="363.798" y="301.813">+static registrarUltimaConexion(oUsuario)</text>
    <text font-size="12.8" style="fill: #000000;text-anchor:start;font-family:monospace;font-style:normal;font-weight:normal" x="363.798" y="317.813">+static altaUsuario(codUsuario,password,descUsuario)</text>
    <text font-size="12.8" style="fill: #000000;text-anchor:start;font-family:monospace;font-style:normal;font-weight:normal" x="363.798" y="333.813">+static cambiarPassword(oUsuario,nuevaPassword)</text>
    <text font-size="12.8" style="fill: #000000;text-anchor:start;font-family:monospace;font-style:normal;font-weight:normal" x="363.798" y="349.813">+static modificarUsuario(oUsuario,nuevoDescUsuario,nuevoPerfil)</text>
    <text font-size="12.8" style="fill: #000000;text-anchor:start;font-family:monospace;font-style:normal;font-weight:normal" x="363.798" y="365.813">+static borrarUsuario(oUsuario)</text>
    <text font-size="12.8" style="fill: #000000;text-anchor:start;font-family:monospace;font-style:normal;font-weight:normal" x="363.798" y="381.813">+static validarCodNoExiste(codUsuario)</text>
  </g>
  <g>
    <rect style="fill: #ffffff" x="69" y="242" width="256.4" height="28"/>
    <rect style="fill: none; fill-opacity:0; stroke-width: 2; stroke: #000000" x="69" y="242" width="256.4" height="28"/>
    <text font-size="16" style="fill: #000000;text-anchor:middle;font-family:sans-serif;font-style:normal;font-weight:700" x="197.2" y="261">Usuario</text>
    <rect style="fill: #ffffff" x="69" y="270" width="256.4" height="116"/>
    <rect style="fill: none; fill-opacity:0; stroke-width: 2; stroke: #000000" x="69" y="270" width="256.4" height="116"/>
    <text font-size="12.8" style="fill: #000000;text-anchor:start;font-family:monospace;font-style:normal;font-weight:normal" x="72" y="284">-codUsuario</text>
    <text font-size="12.8" style="fill: #000000;text-anchor:start;font-family:monospace;font-style:normal;font-weight:normal" x="72" y="300">-password</text>
    <text font-size="12.8" style="fill: #000000;text-anchor:start;font-family:monospace;font-style:normal;font-weight:normal" x="72" y="316">-descUsuario</text>
    <text font-size="12.8" style="fill: #000000;text-anchor:start;font-family:monospace;font-style:normal;font-weight:normal" x="72" y="332">-numAccesos</text>
    <text font-size="12.8" style="fill: #000000;text-anchor:start;font-family:monospace;font-style:normal;font-weight:normal" x="72" y="348">-fechaHoraUltimaConexion</text>
    <text font-size="12.8" style="fill: #000000;text-anchor:start;font-family:monospace;font-style:normal;font-weight:normal" x="72" y="364">-fechaHoraUltimaConexionAnterior</text>
    <text font-size="12.8" style="fill: #000000;text-anchor:start;font-family:monospace;font-style:normal;font-weight:normal" x="72" y="380">-perfil</text>
    <rect style="fill: #ffffff" x="69" y="386" width="256.4" height="8"/>
    <rect style="fill: none; fill-opacity:0; stroke-width: 2; stroke: #000000" x="69" y="386" width="256.4" height="8"/>
  </g>
  <g>
    <rect style="fill: #ffffff" x="174.827" y="64.7032" width="90.95" height="28"/>
    <rect style="fill: none; fill-opacity:0; stroke-width: 2; stroke: #000000" x="174.827" y="64.7032" width="90.95" height="28"/>
    <text font-size="16" style="fill: #000000;text-anchor:middle;font-family:sans-serif;font-style:normal;font-weight:700" x="220.302" y="83.7032">ErrorApp</text>
    <rect style="fill: #ffffff" x="174.827" y="92.7032" width="90.95" height="68"/>
    <rect style="fill: none; fill-opacity:0; stroke-width: 2; stroke: #000000" x="174.827" y="92.7032" width="90.95" height="68"/>
    <text font-size="12.8" style="fill: #000000;text-anchor:start;font-family:monospace;font-style:normal;font-weight:normal" x="177.827" y="106.703">-Code</text>
    <text font-size="12.8" style="fill: #000000;text-anchor:start;font-family:monospace;font-style:normal;font-weight:normal" x="177.827" y="122.703">-Message</text>
    <text font-size="12.8" style="fill: #000000;text-anchor:start;font-family:monospace;font-style:normal;font-weight:normal" x="177.827" y="138.703">-File</text>
    <text font-size="12.8" style="fill: #000000;text-anchor:start;font-family:monospace;font-style:normal;font-weight:normal" x="177.827" y="154.703">-Line</text>
    <rect style="fill: #ffffff" x="174.827" y="160.703" width="90.95" height="8"/>
    <rect style="fill: none; fill-opacity:0; stroke-width: 2; stroke: #000000" x="174.827" y="160.703" width="90.95" height="8"/>
  </g>
  <g>
    <rect style="fill: #ffffff" x="633.404" y="88" width="210.2" height="28"/>
    <rect style="fill: none; fill-opacity:0; stroke-width: 2; stroke: #000000" x="633.404" y="88" width="210.2" height="28"/>
    <text font-size="16" style="fill: #000000;text-anchor:middle;font-family:sans-serif;font-style:normal;font-weight:700" x="738.504" y="107">DBPDO</text>
    <rect style="fill: #ffffff" x="633.404" y="116" width="210.2" height="8"/>
    <rect style="fill: none; fill-opacity:0; stroke-width: 2; stroke: #000000" x="633.404" y="116" width="210.2" height="8"/>
    <rect style="fill: #ffffff" x="633.404" y="124" width="210.2" height="20"/>
    <rect style="fill: none; fill-opacity:0; stroke-width: 2; stroke: #000000" x="633.404" y="124" width="210.2" height="20"/>
    <text font-size="12.8" style="fill: #000000;text-anchor:start;font-family:monospace;font-style:normal;font-weight:normal" x="636.404" y="138">+static ejecutarConsulta()</text>
  </g>
  <g>
    <polyline style="fill: none; fill-opacity:0; stroke-width: 2; stroke-dasharray: 8; stroke: #000000" points="608.348,234.803 608.348,193.905 738.504,193.905 738.504,151.712 "/>
    <polyline style="fill: none; fill-opacity:0; stroke-width: 2; stroke: #000000" points="743.504,164.36 738.504,148.36 733.504,164.36 "/>
  </g>
  <g>
    <polyline style="fill: none; fill-opacity:0; stroke-width: 2; stroke-dasharray: 8; stroke: #000000" points="359.79,311.813 347.099,311.813 347.099,318 333.113,318 "/>
    <polyline style="fill: none; fill-opacity:0; stroke-width: 2; stroke: #000000" points="345.76,313 329.76,318 345.76,323 "/>
  </g>
  <g>
    <polyline style="fill: none; fill-opacity:0; stroke-width: 2; stroke-dasharray: 8; stroke: #000000" points="632.398,116 453.59,116 453.59,116.703 273.488,116.703 "/>
    <polyline style="fill: none; fill-opacity:0; stroke-width: 2; stroke: #000000" points="286.136,111.703 270.136,116.703 286.136,121.703 "/>
  </g>
  <text font-size="19.7556" style="fill: #1e90ff;text-anchor:start;font-family:sans-serif;font-style:normal;font-weight:normal" x="238" y="19">
    <tspan x="238" y="19">DIAGRAMA DE CLASES - ACTUAL</tspan>
  </text>
  <g>
    <rect style="fill: #ffffff" x="113.102" y="465" width="210.2" height="28"/>
    <rect style="fill: none; fill-opacity:0; stroke-width: 2; stroke: #000000" x="113.102" y="465" width="210.2" height="28"/>
    <text font-size="16" style="fill: #000000;text-anchor:middle;font-family:sans-serif;font-style:normal;font-weight:700" x="218.202" y="484">Departamento</text>
    <rect style="fill: #ffffff" x="113.102" y="493" width="210.2" height="84"/>
    <rect style="fill: none; fill-opacity:0; stroke-width: 2; stroke: #000000" x="113.102" y="493" width="210.2" height="84"/>
    <text font-size="12.8" style="fill: #000000;text-anchor:start;font-family:monospace;font-style:normal;font-weight:normal" x="116.102" y="507">-codDepartamento</text>
    <text font-size="12.8" style="fill: #000000;text-anchor:start;font-family:monospace;font-style:normal;font-weight:normal" x="116.102" y="523">-descDepartamento</text>
    <text font-size="12.8" style="fill: #000000;text-anchor:start;font-family:monospace;font-style:normal;font-weight:normal" x="116.102" y="539">-fechaCreacionDepartamento</text>
    <text font-size="12.8" style="fill: #000000;text-anchor:start;font-family:monospace;font-style:normal;font-weight:normal" x="116.102" y="555">-volumenDeNegocio</text>
    <text font-size="12.8" style="fill: #000000;text-anchor:start;font-family:monospace;font-style:normal;font-weight:normal" x="116.102" y="571">-fechaBajaDepartamento</text>
    <rect style="fill: #ffffff" x="113.102" y="577" width="210.2" height="8"/>
    <rect style="fill: none; fill-opacity:0; stroke-width: 2; stroke: #000000" x="113.102" y="577" width="210.2" height="8"/>
  </g>
  <g>
    <rect style="fill: #ffffff" x="523.056" y="495.156" width="348.8" height="28"/>
    <rect style="fill: none; fill-opacity:0; stroke-width: 2; stroke: #000000" x="523.056" y="495.156" width="348.8" height="28"/>
    <text font-size="16" style="fill: #000000;text-anchor:middle;font-family:sans-serif;font-style:normal;font-weight:700" x="697.456" y="514.156">DepartamentoPDO</text>
    <rect style="fill: #ffffff" x="523.056" y="523.156" width="348.8" height="8"/>
    <rect style="fill: none; fill-opacity:0; stroke-width: 2; stroke: #000000" x="523.056" y="523.156" width="348.8" height="8"/>
    <rect style="fill: #ffffff" x="523.056" y="531.156" width="348.8" height="20"/>
    <rect style="fill: none; fill-opacity:0; stroke-width: 2; stroke: #000000" x="523.056" y="531.156" width="348.8" height="20"/>
    <text font-size="12.8" style="fill: #000000;text-anchor:start;font-family:monospace;font-style:normal;font-weight:normal" x="526.056" y="545.156">+buscaDepartamentosPorDesc(descDepartamento)</text>
  </g>
  <g>
    <polyline style="fill: none; fill-opacity:0; stroke-width: 2; stroke-dasharray: 8; stroke: #000000" points="522.05,523.156 427.179,523.156 427.179,525 331.014,525 "/>
    <polyline style="fill: none; fill-opacity:0; stroke-width: 2; stroke: #000000" points="343.661,520 327.661,525 343.661,530 "/>
  </g>
  <g>
    <polyline style="fill: none; fill-opacity:0; stroke-width: 2; stroke-dasharray: 8; stroke: #000000" points="872.861,523.156 893.861,523.156 893.861,134 850.309,134 "/>
    <polyline style="fill: none; fill-opacity:0; stroke-width: 2; stroke: #000000" points="862.957,129 846.957,134 862.957,139 "/>
  </g>
  <g>
    <rect style="fill: #ffffff" x="196.97" y="641.12" width="102.4" height="28"/>
    <rect style="fill: none; fill-opacity:0; stroke-width: 2; stroke: #000000" x="196.97" y="641.12" width="102.4" height="28"/>
    <text font-size="16" style="fill: #000000;text-anchor:middle;font-family:sans-serif;font-style:normal;font-weight:700" x="248.17" y="660.12">FotoNasa</text>
    <rect style="fill: #ffffff" x="196.97" y="669.12" width="102.4" height="84"/>
    <rect style="fill: none; fill-opacity:0; stroke-width: 2; stroke: #000000" x="196.97" y="669.12" width="102.4" height="84"/>
    <text font-size="12.8" style="fill: #000000;text-anchor:start;font-family:monospace;font-style:normal;font-weight:normal" x="199.97" y="683.12">-fecha</text>
    <text font-size="12.8" style="fill: #000000;text-anchor:start;font-family:monospace;font-style:normal;font-weight:normal" x="199.97" y="699.12">-descripcion</text>
    <text font-size="12.8" style="fill: #000000;text-anchor:start;font-family:monospace;font-style:normal;font-weight:normal" x="199.97" y="715.12">-urlHD</text>
    <text font-size="12.8" style="fill: #000000;text-anchor:start;font-family:monospace;font-style:normal;font-weight:normal" x="199.97" y="731.12">-titulo</text>
    <text font-size="12.8" style="fill: #000000;text-anchor:start;font-family:monospace;font-style:normal;font-weight:normal" x="199.97" y="747.12">-url</text>
    <rect style="fill: #ffffff" x="196.97" y="753.12" width="102.4" height="8"/>
    <rect style="fill: none; fill-opacity:0; stroke-width: 2; stroke: #000000" x="196.97" y="753.12" width="102.4" height="8"/>
  </g>
  <g>
    <rect style="fill: #ffffff" x="763.689" y="673.541" width="125.5" height="28"/>
    <rect style="fill: none; fill-opacity:0; stroke-width: 2; stroke: #000000" x="763.689" y="673.541" width="125.5" height="28"/>
    <text font-size="16" style="fill: #000000;text-anchor:middle;font-family:sans-serif;font-style:normal;font-weight:700" x="826.439" y="692.541">REST</text>
    <rect style="fill: #ffffff" x="763.689" y="701.541" width="125.5" height="8"/>
    <rect style="fill: none; fill-opacity:0; stroke-width: 2; stroke: #000000" x="763.689" y="701.541" width="125.5" height="8"/>
    <rect style="fill: #ffffff" x="763.689" y="709.541" width="125.5" height="20"/>
    <rect style="fill: none; fill-opacity:0; stroke-width: 2; stroke: #000000" x="763.689" y="709.541" width="125.5" height="20"/>
    <text font-size="12.8" style="fill: #000000;text-anchor:start;font-family:monospace;font-style:normal;font-weight:normal" x="766.689" y="723.541">+apiNasa(fecha)</text>
  </g>
  <g>
    <polyline style="fill: none; fill-opacity:0; stroke-width: 2; stroke-dasharray: 8; stroke: #000000" points="762.681,701.541 535.529,701.541 535.529,701.12 307.082,701.12 "/>
    <polyline style="fill: none; fill-opacity:0; stroke-width: 2; stroke: #000000" points="319.729,696.12 303.729,701.12 319.729,706.12 "/>
  </g>
  <g>
    <polyline style="fill: none; fill-opacity:0; stroke-width: 2; stroke-dasharray: 8; stroke: #000000" points="890.197,701.541 911.197,701.541 911.197,102 850.309,102 "/>
    <polyline style="fill: none; fill-opacity:0; stroke-width: 2; stroke: #000000" points="862.957,97 846.957,102 862.957,107 "/>
  </g>
</svg>
